<?xml version="1.0" encoding="UTF-8"?>
<svg id="Capa_1" xmlns="http://www.w3.org/2000/svg" version="1.1" viewBox="0 0 300 200">
  <!-- Generator: Adobe Illustrator 29.6.1, SVG Export Plug-In . SVG Version: 2.1.1 Build 9)  -->
  <defs>
    <style>
      .st0 {
        fill: #fff;
        stroke: #fff;
      }

      .st0, .st1 {
        stroke-miterlimit: 10;
      }

      .st2 {
        fill: #1d1d1b;
        font-family: MyriadPro-Regular, 'Myriad Pro';
        font-size: 207.87px;
      }

      .st1 {
        fill: none;
        stroke: #1d1d1b;
      }
    </style>
  </defs>
  <text class="st2" transform="translate(-3.96 162.84) scale(.51 1)"><tspan x="0" y="0">500</tspan></text>
  <path class="st1" d="M236.99,45.5c-4.11-.89-8.93-2.08-14.6-.72-12.02,2.88-18.72,14.97-21.01,19.1-9.9,17.86-7.86,38.26-6.95,44.7.73,5.19,2.63,17.77,10.6,28.77,8.98,12.39,24.15,20.66,36.92,15.62,17.65-6.96,30.52-39.25,22.59-74.37l29.16,2.79-.53,34-10.6.7-7.42,23.01,7.55,14.64-15.9,23.19-9.94-11.68-15.24,9.76-.93,18.13-23.19-1.39-.66-17.26-15.77-9.24-8.22,11.16-16.57-25.28,7.42-10.81-6.49-24.23-12.33-.7.8-35.39,11.8-.35,6.49-22.14-8.88-15.34,16.04-22.84,9.68,11.16,15.9-8.02,1.99-20.05h22l1.06,18.65,9.43,5.43-14.18,19Z"/>
  <path class="st1" d="M252.28,35.6c.18-.47,13.48-19.05,13.48-19.05l6.79,4.09,10.23-11.69,15.57,23.02-7.6,13.91,5.66,22.03-24.44,3.33c0-17.36-6.3-29.53-19.68-35.64Z"/>
  <g>
    <g>
      <path class="st1" d="M232.58,95.6l5.2,1.5,11.9-25.42c4.29-2.8,7.29-5.94,9.72-9.24.86-4,.46-7.41-.78-10.41-1.92,1.22-2.45,5.44-3.37,8.82-3.25,3.34-6.58,3.95-7.52.22l2.02-8.28c-2.83,2-5.01,4.92-6.6,8.69-1.06,2.38-.76,5.42.26,8.81-.98,4.66-5.81,14.85-10.84,25.33Z"/>
      <path class="st1" d="M237.76,97.09l-5.2-1.5-11.9,25.42c-4.29,2.8-7.29,5.94-9.72,9.24-.86,4-.46,7.41.78,10.41,1.92-1.22,2.45-5.44,3.37-8.82,3.25-3.34,6.58-3.95,7.52-.22l-2.02,8.28c2.83-2,5.01-4.92,6.6-8.69,1.06-2.38.76-5.42-.26-8.81.98-4.66,5.81-14.85,10.84-25.33Z"/>
    </g>
    <polygon class="st0" points="233.77 95.16 233.4 95.96 236.62 97.44 237 96.64 233.77 95.16"/>
  </g>
</svg>