<?xml version="1.0" encoding="UTF-8"?>
<svg id="Capa_1" xmlns="http://www.w3.org/2000/svg" version="1.1" viewBox="0 0 300 200">
  <!-- Generator: Adobe Illustrator 29.6.1, SVG Export Plug-In . SVG Version: 2.1.1 Build 9)  -->
  <defs>
    <style>
      .st0 {
        fill: #1d1d1b;
        font-family: MyriadPro-Regular, 'Myriad Pro';
        font-size: 207.87px;
      }

      .st1 {
        fill: #fff;
        stroke: #1d1d1b;
        stroke-miterlimit: 10;
      }
    </style>
  </defs>
  <text class="st0" transform="translate(0 160.24) scale(.5 1)"><tspan x="0" y="0">401</tspan></text>
  <g>
    <path class="st1" d="M297.23,114.72c-6.16,53.8-43.93,90.76-84.35,82.56-40.42-8.21-68.19-58.47-62.02-112.27C157.02,31.21,194.79-5.75,235.2,2.45c40.42,8.21,68.19,58.47,62.02,112.27Z"/>
    <path class="st1" d="M284.66,112.54c-5.08,44.31-36.18,74.74-69.46,67.99-33.29-6.76-56.16-48.15-51.08-92.46,5.08-44.31,36.18-74.74,69.46-67.99,33.29,6.76,56.16,48.15,51.08,92.46Z"/>
    <path class="st1" d="M253.49,160.89c4.1-29.13-12.32-54.56-30.41-55.39-17.45-.8-34.73,21.38-33.5,49.83l63.91,5.56Z"/>
    <ellipse class="st1" cx="224.39" cy="74.25" rx="20.51" ry="27.3"/>
    <polygon class="st1" points="178.7 152.76 270.36 46 275.5 54.13 184.28 160.89 178.7 152.76"/>
  </g>
</svg>