<?xml version="1.0" encoding="UTF-8"?>
<svg id="Capa_1" xmlns="http://www.w3.org/2000/svg" version="1.1" viewBox="0 0 292.54 185.74">
  <!-- Generator: Adobe Illustrator 29.6.1, SVG Export Plug-In . SVG Version: 2.1.1 Build 9)  -->
  <defs>
    <style>
      .st0 {
        fill: none;
      }

      .st0, .st1 {
        stroke: #1d1d1b;
        stroke-miterlimit: 10;
      }

      .st2, .st3 {
        isolation: isolate;
      }

      .st3 {
        fill: #1d1d1b;
        font-family: Verdana-Bold, Verdana;
        font-size: 193.66px;
        font-weight: 700;
      }

      .st1 {
        fill: #fff;
      }
    </style>
  </defs>
  <g class="st2">
    <text class="st3" transform="translate(-24.57 153.2) scale(.33 1)"><tspan x="0" y="0" xml:space="preserve"> 400</tspan></text>
  </g>
  <path class="st1" d="M196.67,130.1l-16.82,24.56c-31.12-4.04-26.78,4.61-26.78,4.61,17.74,32.04,76,25.79,76,25.79,9.5-20.32-20.89-22.3-20.89-22.3l.51-30.22-12.01-2.44h0Z"/>
  <polygon class="st0" points="162.51 .83 141.65 116.17 269.71 146.07 291.77 37.28 162.51 .83"/>
  <polygon class="st0" points="166.64 16.21 150.14 107.9 263.64 132.68 280.86 44.98 166.64 16.21"/>
  <path class="st0" d="M153.38,109.88c3.05-6.36,9.18-8.5,17.25-7.97,4.18-7.04,16.29-20.08,15.77-17.66,16.31-8.12,27.26-17.01,30.31-27.06"/>
  <path class="st0" d="M220.59,29.89c-1.96,3.29-3.97,6.61-3.15,8.54-2.45,1.33-1.84,5.61-1.94,21.36,3.7-6.54,6-11.42,5.09-12.53l10.43-15.66-10.43-1.71h0Z"/>
  <g>
    <line class="st0" x1="182.82" y1="43.84" x2="191.88" y2="59.78"/>
    <line class="st0" x1="191.88" y1="43.84" x2="182.82" y2="59.78"/>
  </g>
  <g>
    <line class="st0" x1="240.24" y1="57.19" x2="249.3" y2="73.14"/>
    <line class="st0" x1="249.3" y1="57.19" x2="240.24" y2="73.14"/>
  </g>
  <path class="st0" d="M200.12,93.38c10.52-8.01,20.9-4.43,31.13,10.25"/>
  <line class="st1" x1="196.8" y1="139.15" x2="182.82" y2="162.32"/>
  <line class="st1" x1="200.46" y1="139.15" x2="203.96" y2="167.24"/>
</svg>