<?xml version="1.0" encoding="UTF-8"?>
<svg id="Capa_1" xmlns="http://www.w3.org/2000/svg" version="1.1" viewBox="0 0 300 200">
  <!-- Generator: Adobe Illustrator 29.6.1, SVG Export Plug-In . SVG Version: 2.1.1 Build 9)  -->
  <defs>
    <style>
      .st0 {
        fill: #1d1d1b;
        font-family: Verdana, Verdana;
        font-size: 193.66px;
      }

      .st1 {
        fill: none;
        stroke: #1d1d1b;
        stroke-miterlimit: 10;
      }
    </style>
  </defs>
  <text class="st0" transform="translate(-2.89 161.8) scale(.43 1)"><tspan x="0" y="0">404</tspan></text>
  <g>
    <polygon class="st1" points="229.91 5.15 175.68 0 164.3 176.96 227.98 183.82 264.54 192.97 300.13 22.87 256.06 9.43 244.2 20.58 253.64 62.04 239.84 84.62 232.21 143.8 225.55 80.9 232.21 71.11 238.39 62.04 217.32 24.59 229.91 5.15"/>
    <path class="st1" d="M222.22,142.23l-37.98-3.04c-.05.15-.94-.74-.89-1.74h0c.05-1,1.04-1.73,2.19-1.64l37.98,3.04c1.16.09,2.05.98,2,1.98h0c-.05,1-1.04,1.73-3.3,1.4Z"/>
    <path class="st1" d="M226.7,97.61l.71,4.83-42.28-4.83c-1.59-1.86-1.7-3.39.53-4.4l41.04,4.4Z"/>
    <path class="st1" d="M238.15,99.65v4.62l28.97,8.7c1.21-.88,1.53-2.37,1.06-4.4l-29.65-8.91"/>
    <path class="st1" d="M228.83,111.85v4.98l-44.88-4.98c-1.14-2.16-1.05-3.77.38-4.79l44.5,4.79Z"/>
    <path class="st1" d="M230.23,125.04v5.75l-47.05-5.75c-.84-1.67-1.11-3.22.17-4.45l47.15,5.1"/>
    <path class="st1" d="M236.76,112.97l29.04,9.24c.99,2.1.51,3.53-1.15,4.4l-29.02-9.28,1.13-4.35Z"/>
    <path class="st1" d="M234.9,126.18l-.62,4.62,28.42,9.77c1.15-.64,1.54-2.3,1.32-4.77l-29.13-9.62Z"/>
    <path class="st1" d="M187.42,65.83l44.79,4.83-3.38,4.94-41.41-4.3c-1.72-1.67-1.81-3.49,0-5.48Z"/>
    <path class="st1" d="M246.5,73.72l-2.42,3.95,27.27,8.23c2.18-.35,2.57-1.85,1.5-4.3l-26.36-7.89Z"/>
    <path class="st1" d="M254.15,62.04l21.27,6.9c.56,3.16-.28,4.55-2.65,4.19l-21.59-7.06,2.47-4.04-1.03-4.53"/>
    <path class="st1" d="M235.43,56.77l2.96,5.26-50.44-5.26c-1.52-1.84-1.3-3.49,0-5.01l47.48,5.01Z"/>
    <path class="st1" d="M224.05,36.54l3.15,5.6-20.45-2.09c-.98-2-.92-3.69.62-4.94l16.68,1.43Z"/>
    <path class="st1" d="M248.94,41.39l14.44,4.03c1.03,1.96.55,3.54-1.55,4.72l-11.89-4.38-1-4.38Z"/>
  </g>
</svg>